<svg xmlns="http://www.w3.org/2000/svg" version="1.1">
  <rect x="0" y="0" width="700" height="700" fill="white" stroke-width="4" stroke="black" id="Arena"/>
  <rect x="100" y="100" width="100" height="200" fill="gray" stroke-width="4" stroke="black" id="PostoAbastecimento" />
  <circle cx="30" cy="20" r="30" fill="green" id="Jogador" />
  <circle cx="10" cy="100" r="30" fill="red" id="Inimigo" />
  <circle cx="300" cy="300" r="30" fill="red" id="Inimigo" />
  <circle cx="302" cy="400" r="30" fill="red" id="Inimigo" />
  <circle cx="125" cy="525" r="30" fill="red" id="Inimigo" />
  <circle cx="129" cy="625" r="30" fill="red" id="Inimigo" />
  <circle cx="225" cy="625" r="30" fill="red" id="Inimigo" />
  <circle cx="39" cy="43" r="30" fill="red" id="Inimigo" />
  <circle cx="75" cy="93" r="30" fill="red" id="Inimigo" />
  <circle cx="325" cy="525" r="30" fill="red" id="Inimigo" />
  <circle cx="32" cy="55" r="30" fill="red" id="Inimigo" />
  <circle cx="320" cy="155" r="30" fill="red" id="Inimigo" />
  <circle cx="312" cy="515" r="30" fill="red" id="Inimigo" />
  <circle cx="425" cy="625" r="30" fill="red" id="Inimigo" />
  <circle cx="30" cy="30" r="30" fill="red" id="Inimigo" />
  <circle cx="525" cy="325" r="30" fill="red" id="Inimigo" />
  <circle cx="225" cy="400" r="30" fill="blue" id="ObjetoResgate" />
  <circle cx="625" cy="625" r="30" fill="blue" id="ObjetoResgate" />
  <circle cx="30" cy="300" r="30" fill="blue" id="ObjetoResgate" />
  <circle cx="300" cy="30" r="30" fill="blue" id="ObjetoResgate" />
</svg>
